<svg width="100" height="100" viewBox="0 0 100 100" fill="none" xmlns="http://www.w3.org/2000/svg">
<g clip-path="url(#clip0_2_887)">
<path d="M20.8982 37.1094C20.8982 53.2639 34.0406 66.4063 50.1951 66.4063C66.3496 66.4063 79.492 53.2639 79.492 37.1094C79.492 20.9549 66.3496 7.8125 50.1951 7.8125C34.0406 7.8125 20.8982 20.9549 20.8982 37.1094ZM50.1951 11.7188C64.1958 11.7188 75.5858 23.1087 75.5858 37.1094C75.5858 51.1101 64.1958 62.5001 50.1951 62.5001C36.1944 62.5001 24.8044 51.1101 24.8044 37.1094C24.8044 23.1087 36.1944 11.7188 50.1951 11.7188Z" fill="#034F9A"/>
<path d="M32.107 33.6272L39.6777 41.0865L37.9359 51.5701C37.8146 52.3002 38.1159 53.0357 38.7148 53.4706C39.313 53.9054 40.1057 53.9642 40.7626 53.6239L50.1948 48.7258L59.6263 53.6239C60.2778 53.9619 61.0705 53.9092 61.674 53.4706C62.2729 53.0357 62.5743 52.3002 62.453 51.5701L60.7112 41.0865L68.2818 33.6272C68.809 33.1084 68.9975 32.3363 68.7686 31.6321C68.5397 30.9287 67.9332 30.4152 67.2015 30.3046L56.6951 28.723L51.9412 19.216C51.6108 18.5546 50.9341 18.1365 50.1948 18.1365C49.4547 18.1365 48.7788 18.5546 48.4477 19.216L43.6938 28.723L33.1873 30.3046C32.4557 30.4145 31.8491 30.9287 31.6202 31.6321C31.3914 32.3363 31.5806 33.1084 32.107 33.6272ZM45.2784 32.4348C45.9071 32.3401 46.4503 31.9457 46.7349 31.3773L50.1948 24.4567L53.6547 31.3773C53.9393 31.9457 54.4825 32.3401 55.1112 32.4348L62.7582 33.586L57.2474 39.0144C56.795 39.4607 56.5875 40.0993 56.6912 40.7264L57.9593 48.3566L51.0943 44.7921C50.8128 44.6456 50.5038 44.5724 50.1948 44.5724C49.8858 44.5724 49.5768 44.6456 49.2945 44.7921L42.4296 48.3566L43.6976 40.7264C43.8021 40.0993 43.5946 39.4607 43.1414 39.0144L37.6315 33.586L45.2784 32.4348Z" fill="#034F9A"/>
<path d="M52.1484 1.95313C52.1484 3.03193 51.2741 3.90626 50.1953 3.90626C49.1165 3.90626 48.2422 3.03193 48.2422 1.95313C48.2422 0.87433 49.1165 0 50.1953 0C51.2741 0 52.1484 0.87433 52.1484 1.95313Z" fill="#034F9A"/>
<path d="M40.9902 1.15134C24.5603 5.34522 13.0857 20.1318 13.0857 37.1095C13.0857 47.6541 17.5191 57.5899 25.3019 64.6265L13.5351 85.3639C13.1566 86.0315 13.2039 86.8586 13.6556 87.4781C14.1073 88.0983 14.8794 88.3966 15.6309 88.2402L28.9938 85.4654L33.6904 98.7001C33.9453 99.4204 34.5976 99.9247 35.359 99.9926C36.1204 100.06 36.8505 99.6767 37.2282 99.0122L50.1951 76.2155L63.1613 99.0122C63.5107 99.6264 64.1608 99.9994 64.8581 99.9994C64.9153 99.9994 64.9733 99.9971 65.0305 99.9926C65.7919 99.9247 66.4442 99.4196 66.6998 98.7001L71.3957 85.4654L84.7586 88.2402C85.5094 88.3959 86.2822 88.0976 86.7339 87.4781C87.1863 86.8586 87.2328 86.0315 86.8544 85.3639L75.0876 64.6265C82.8703 57.5899 87.3038 47.6541 87.3038 37.1095C87.3038 20.1318 75.8292 5.34522 59.4 1.15134C58.354 0.884307 57.2912 1.51526 57.0242 2.56049C56.7572 3.60572 57.3881 4.66925 58.4334 4.93628C73.1322 8.68843 83.3983 21.9186 83.3983 37.1095C83.3983 55.5978 68.3829 70.3127 50.1951 70.3127C31.9944 70.3127 16.9919 55.5856 16.9919 37.1095C16.9919 21.9186 27.2573 8.68843 41.9561 4.93628C43.0014 4.66925 43.6323 3.60572 43.366 2.56049C43.099 1.51526 42.0362 0.884307 40.9902 1.15134ZM35.9442 93.3702L32.1058 82.554C31.7793 81.6339 30.8241 81.0961 29.8681 81.2944L19.0626 83.5382L28.375 67.1259C33.8049 71.0733 40.2342 73.4781 46.9198 74.0732L35.9442 93.3702ZM70.5214 81.2944C69.5662 81.0961 68.6102 81.6339 68.2837 82.554L64.4461 93.3702L53.4697 74.0732C60.1561 73.4781 66.5846 71.0733 72.0152 67.1259L81.3277 83.5382L70.5214 81.2944Z" fill="#1D1D1D"/>
</g>
<defs>
<clipPath id="clip0_2_887">
<rect width="100" height="100" fill="white"/>
</clipPath>
</defs>
</svg>
