<svg width="100" height="100" viewBox="0 0 100 100" fill="none" xmlns="http://www.w3.org/2000/svg">
<path d="M92.1448 20.074L83.6721 18.4719V7.97872C83.6721 3.57915 80.0929 0 75.6933 0H24.3065C19.907 0 16.3278 3.57915 16.3278 7.97872V18.4719L7.85059 20.0751C4.06612 20.8017 0.987183 24.5281 0.987183 28.3817V92.7338C0.987183 96.7404 4.24654 100 8.25335 100H91.7465C95.7531 100 99.0127 96.7404 99.0127 92.7338V28.3817C99.0127 24.5281 95.934 20.8017 92.1448 20.074ZM19.5193 7.97872C19.5193 5.33894 21.6668 3.19149 24.3065 3.19149H75.6933C78.3329 3.19149 80.4806 5.33894 80.4806 7.97872V18.9189L64.0444 29.3964L57.5123 19.1496L72.9231 9.32404C73.6661 8.85021 73.8846 7.86362 73.4108 7.12064C72.9368 6.37745 71.9506 6.15915 71.2074 6.63298L54.8436 17.0662H45.1565L28.794 6.63362C28.0506 6.16 27.0644 6.3783 26.5906 7.12128C26.1168 7.86447 26.3351 8.85085 27.0782 9.32468L42.4878 19.1496L35.9557 29.3964L19.5195 18.9189L19.5193 7.97872ZM26.6787 27.2677L35.5855 32.9455C36.3287 33.4194 37.3153 33.2009 37.7889 32.4579L40.068 28.8826L43.801 38.0662L38.9429 69.9955C38.8104 70.8668 39.4091 71.6806 40.2806 71.8132C40.3619 71.8255 40.4427 71.8315 40.5225 71.8315C41.2978 71.8315 41.9778 71.2655 42.098 70.4755L46.8161 39.4677H53.1842L57.9023 70.4755C58.0225 71.2653 58.7027 71.8315 59.478 71.8315C59.5578 71.8315 59.6387 71.8255 59.7199 71.8132C60.5914 71.6806 61.1902 70.8668 61.0576 69.9955L56.1991 38.066L59.9319 28.8826L62.2108 32.4577C62.515 32.9349 63.0308 33.1957 63.5578 33.1957C63.8514 33.1957 64.1482 33.1149 64.414 32.9453L73.321 27.2674V54.3149C73.321 67.1743 62.8591 77.6362 49.9997 77.6362C37.1404 77.6362 26.6785 67.1743 26.6785 54.3149L26.6787 27.2677ZM45.5661 20.2579H54.4338L57.8282 25.5826L53.4814 36.2762H46.5185L42.1716 25.5823L45.5661 20.2579ZM95.8212 92.7338C95.8212 94.9806 93.9933 96.8085 91.7465 96.8085H8.25335C6.00654 96.8085 4.17867 94.9806 4.17867 92.7338V28.3817C4.17867 26.0228 6.13591 23.654 8.44803 23.21L17.5989 21.4796L23.4872 25.2332V54.3151C23.4872 68.9343 35.3808 80.8279 49.9999 80.8279C64.6191 80.8279 76.5127 68.9343 76.5127 54.3151V25.233L82.4008 21.4796L91.5474 23.2092C93.864 23.654 95.8212 26.0228 95.8212 28.3817V92.7338Z" fill="#1D1D1D"/>
<path fill-rule="evenodd" clip-rule="evenodd" d="M26.6787 27.2677L23.4872 25.2332V54.3151C23.4872 68.9343 35.3808 80.8279 49.9999 80.8279C64.6191 80.8279 76.5127 68.9343 76.5127 54.3151V25.233L73.321 27.2674V54.3149C73.321 67.1743 62.8591 77.6362 49.9997 77.6362C37.1404 77.6362 26.6785 67.1743 26.6785 54.3149L26.6787 27.2677ZM59.9319 28.8826L57.8282 25.5826L53.4814 36.2762H46.5185L42.1716 25.5823L40.068 28.8826L43.801 38.0662L38.9429 69.9955C38.8104 70.8668 39.4091 71.6806 40.2806 71.8132C40.3619 71.8255 40.4427 71.8315 40.5225 71.8315C41.2978 71.8315 41.9778 71.2655 42.098 70.4755L46.8161 39.4677H53.1842L57.9023 70.4755C58.0225 71.2653 58.7027 71.8315 59.478 71.8315C59.5578 71.8315 59.6387 71.8255 59.7199 71.8132C60.5914 71.6806 61.1902 70.8668 61.0576 69.9955L56.1991 38.066L59.9319 28.8826Z" fill="#034F9A"/>
<path d="M85.1064 78.5042C85.9877 78.5042 86.7022 77.7898 86.7022 76.9085C86.7022 76.0272 85.9877 75.3127 85.1064 75.3127C84.2251 75.3127 83.5107 76.0272 83.5107 76.9085C83.5107 77.7898 84.2251 78.5042 85.1064 78.5042Z" fill="#034F9A"/>
<path d="M78.7234 84.8873C79.6047 84.8873 80.3192 84.1729 80.3192 83.2915C80.3192 82.4102 79.6047 81.6958 78.7234 81.6958C77.8421 81.6958 77.1277 82.4102 77.1277 83.2915C77.1277 84.1729 77.8421 84.8873 78.7234 84.8873Z" fill="#034F9A"/>
</svg>
