<svg width="100" height="100" viewBox="0 0 100 100" fill="none" xmlns="http://www.w3.org/2000/svg">
<g clip-path="url(#clip0_2_850)">
<path d="M88.3793 29.1777C87.6176 28.4141 86.3812 28.4141 85.6176 29.1777C84.8558 29.9395 84.8558 31.1758 85.6176 31.9395C86.3812 32.7012 87.6176 32.7012 88.3793 31.9395C89.143 31.1758 89.143 29.9395 88.3793 29.1777Z" fill="#1D1D1D"/>
<path d="M14.3826 31.4941C13.6189 30.7305 12.3826 30.7305 11.6209 31.4941C10.8572 32.2559 10.8572 33.4942 11.6209 34.2559C12.3826 35.0196 13.6189 35.0196 14.3826 34.2559C15.1443 33.4942 15.1443 32.2559 14.3826 31.4941Z" fill="#034F9A"/>
<path fill-rule="evenodd" clip-rule="evenodd" d="M15.4033 55.1685L12.2309 58.341C9.55896 61.01 9.55525 65.336 12.2293 68.0075C13.5213 69.3009 15.2559 70.0294 17.1377 70.0097C17.1194 71.7843 17.7842 73.5644 19.135 74.9152C20.4682 76.2472 22.2186 76.913 23.9692 76.913C23.9942 76.913 24.019 76.9115 24.044 76.9113C24.0249 78.6867 24.6895 80.4684 26.0407 81.8209C27.3316 83.1117 29.048 83.8229 30.874 83.8229C30.8988 83.8229 30.9234 83.8213 30.948 83.8211C30.9298 85.5952 31.5947 87.3752 32.9457 88.726C35.6111 91.3891 39.9481 91.3905 42.6135 88.7254L43.3043 88.0346L46.7555 91.4874C49.4272 94.1589 53.7525 94.1618 56.4242 91.4874C57.7755 90.136 58.4404 88.3547 58.4211 86.5795C58.4457 86.5797 58.4703 86.5813 58.4949 86.5813C60.2457 86.5813 61.9971 85.9151 63.3309 84.5824C64.6801 83.2318 65.3444 81.4523 65.326 79.6783C67.2051 79.6988 68.9417 78.9711 70.2346 77.6769C71.586 76.3255 72.2508 74.5443 72.2315 72.7691C72.2561 72.7693 72.2807 72.7708 72.3054 72.7708C74.0561 72.7708 75.8075 72.1046 77.1413 70.772C79.8056 68.1054 79.8052 63.7684 77.1407 61.1041L76.1935 60.1569L73.3733 57.3356L62.6395 46.6017L59.4058 48.8927L72.3022 61.7891C72.3057 61.7926 72.3093 61.7963 72.313 61.7998L74.379 63.8659C75.521 65.0079 75.5208 66.8671 74.3796 68.0093C73.236 69.1513 71.3776 69.1519 70.2356 68.0104L68.1627 65.9376C67.3998 65.1749 66.1631 65.1749 65.4004 65.9376C64.6377 66.7003 64.6377 67.937 65.4004 68.6997L67.4727 70.7718C68.6147 71.9138 68.6147 73.772 67.4721 74.9146C66.3278 76.0599 64.476 76.0603 63.3312 74.9148L63.3299 74.9134L61.2578 72.8431C60.4943 72.0806 59.258 72.0812 58.4955 72.8443C57.7332 73.6074 57.7337 74.8439 58.4966 75.6064L60.5678 77.6756C61.7096 78.8185 61.7096 80.6781 60.5691 81.8197C59.4258 82.9619 57.5668 82.9625 56.4244 81.8203L54.3521 79.748C53.5892 78.9853 52.3525 78.9853 51.5898 79.748C50.827 80.5107 50.827 81.7475 51.5898 82.5102L53.662 84.5823C54.804 85.7243 54.804 87.5825 53.6614 88.7251C52.5167 89.8708 50.664 89.8706 49.5181 88.7247L46.0665 85.2717L46.7575 84.5807C49.422 81.9109 49.4364 77.5996 46.7561 74.9136C45.4053 73.563 43.6256 72.8984 41.8516 72.9165C41.8703 71.0069 41.1246 69.2823 39.8516 68.0093C38.5578 66.7155 36.8238 65.9889 34.9453 66.0077C34.9642 64.1348 34.2414 62.3989 32.9455 61.103C31.6523 59.8102 29.9185 59.084 28.0409 59.1029C28.0616 57.2107 27.3216 55.4793 26.0409 54.1988C24.1017 52.2595 21.2889 51.7271 18.8737 52.6029L15.4033 55.1685ZM14.9916 65.2454C16.1434 66.3983 17.9952 66.3864 19.1336 65.2469L23.278 61.1045L23.279 61.1035C24.4214 59.9613 24.4257 58.1078 23.279 56.9613C22.1327 55.8146 20.2797 55.8152 19.1358 56.9605C16.4905 59.6059 15.5024 60.5938 15.1588 60.9374L15.0192 61.077L15.0131 61.083L15.0016 61.0946L14.992 61.1041C13.8457 62.2495 13.8463 64.101 14.9916 65.2454ZM21.896 68.0089C20.7548 69.1513 20.7548 71.0105 21.8966 72.1523C23.0389 73.2941 24.8989 73.2945 26.0407 72.1521L30.1833 68.0095C31.3275 66.8653 31.3277 65.0098 30.1833 63.8655C29.0386 62.7207 27.1851 62.7219 26.0411 63.8655L26.0401 63.8665L21.8983 68.0065L21.8973 68.0075L21.896 68.0089ZM28.8034 79.0594C29.9476 80.2035 31.8015 80.2023 32.9449 79.0588L37.0894 74.9142C38.2363 73.7673 38.2316 71.914 37.0894 70.772C35.9431 69.6253 34.0902 69.6259 32.9463 70.7712L28.8029 74.9146C27.6607 76.0566 27.6611 77.916 28.8034 79.0594ZM39.8516 85.9627L43.9942 81.8201C45.1524 80.6598 45.1288 78.8131 43.9928 77.6746C42.8481 76.53 40.9899 76.5382 39.852 77.6761L35.7074 81.8207C34.5654 82.9627 34.5654 84.8209 35.7074 85.9629C36.8498 87.1045 38.7096 87.1051 39.8516 85.9627Z" fill="#1D1D1D"/>
<path fill-rule="evenodd" clip-rule="evenodd" d="M38.4695 26.5769L44.4745 27.4347L51.5878 24.5054L38.7002 22.6646L25.4319 9.39651C24.8556 8.81986 24.1849 8.82379 24.068 8.82448C24.0582 8.82453 24.0523 8.82457 24.0507 8.82424C23.5327 8.82424 23.036 9.0301 22.6696 9.39631L0.571782 31.4939C-0.190333 32.2563 -0.190919 33.4936 0.571977 34.2563L13.8822 47.5646L15.4033 55.1685L18.8737 52.6029L17.8016 47.2431L38.4695 26.5769ZM4.71537 32.8748L24.0507 13.5395L26.813 16.3018L17.1444 25.9705C16.3817 26.7332 16.3817 27.9699 17.1444 28.7328C17.9073 29.4955 19.1436 29.4955 19.9067 28.7328L29.5753 19.0642L35.0172 24.506L15.6817 43.8395L4.71537 32.8748Z" fill="#1D1D1D"/>
<path fill-rule="evenodd" clip-rule="evenodd" d="M99.4282 29.1783L77.331 7.07969C76.5685 6.31719 75.3321 6.31719 74.5686 7.07969C72.5501 9.09826 62.9863 18.662 61.0342 20.6144L51.5878 24.5054L44.4745 27.4347L42.5606 28.2234C42.3223 28.3217 42.1059 28.466 41.9235 28.6482L28.8023 41.7694C26.1372 44.4345 26.1372 48.7708 28.8023 51.4359C31.4757 54.109 35.7963 54.1101 38.4711 51.4355L43.3018 46.6027C44.0649 45.8407 45.3051 45.8405 46.0659 46.6019C49.7501 50.2857 55.1447 50.9332 59.4058 48.8927L62.6395 46.6017L64.0201 45.2212C64.7828 44.4585 64.7828 43.2218 64.0201 42.4591C63.2574 41.6964 62.0211 41.6964 61.2578 42.4591C60.8978 42.8074 60.61 43.1001 60.3581 43.3564C59.7602 43.9647 59.364 44.3676 58.6836 44.8204C55.6941 46.8204 51.5462 46.5575 48.8284 43.8399C46.5454 41.5565 42.8278 41.5559 40.5405 43.8401L35.709 48.6738C34.5621 49.8205 32.7119 49.8212 31.5646 48.6738C30.4226 47.5318 30.4226 45.6735 31.5646 44.5315L44.4096 31.6863L61.6787 24.5732L81.7308 44.6253L73.3733 57.3356L76.1935 60.1569L85.7584 45.6101L99.428 31.9404C100.191 31.1777 100.191 29.941 99.4282 29.1783ZM64.9016 22.2712L84.2371 41.6069L95.2854 30.5584L75.9499 11.2227L73.1886 13.984L82.8564 23.6519C83.6191 24.4148 83.6191 25.6515 82.8564 26.4142C82.0933 27.1769 80.857 27.1769 80.0941 26.4142L70.4262 16.7464L64.9016 22.2712Z" fill="#1D1D1D"/>
<path fill-rule="evenodd" clip-rule="evenodd" d="M38.4695 26.5769L44.4745 27.4347L51.5878 24.5054L38.7002 22.6646L25.4319 9.39651C24.8556 8.81986 24.1849 8.82379 24.068 8.82448C24.0582 8.82453 24.0507 8.82424 24.0507 8.82424C23.5327 8.82424 23.036 9.0301 22.6696 9.39631L0.571782 31.4939C-0.190333 32.2563 -0.190919 33.4936 0.571977 34.2563L13.8822 47.5646L15.4033 55.1685L18.8737 52.6029L17.8016 47.2431L38.4695 26.5769ZM4.71537 32.8748L24.0507 13.5395L26.813 16.3018L17.1444 25.9705C16.3817 26.7332 16.3817 27.9699 17.1444 28.7328C17.9073 29.4955 19.1436 29.4955 19.9067 28.7328L29.5753 19.0642L35.0172 24.506L15.6817 43.8395L4.71537 32.8748Z" fill="#034F9A"/>
<path fill-rule="evenodd" clip-rule="evenodd" d="M46.0665 85.2717L43.3043 88.0346L46.7555 91.4874C49.4272 94.1589 53.7525 94.1618 56.4242 91.4874C57.7755 90.136 58.4404 88.3547 58.4211 86.5795C58.4336 86.5796 58.4461 86.5801 58.4586 86.5805C58.4707 86.5809 58.4828 86.5813 58.4949 86.5813C60.2457 86.5813 61.9971 85.9151 63.3309 84.5824C64.6801 83.2318 65.3444 81.4523 65.326 79.6783C67.2051 79.6988 68.9417 78.9711 70.2346 77.6769C71.586 76.3255 72.2508 74.5443 72.2315 72.7691C72.24 72.7691 72.2485 72.7694 72.2569 72.7696C72.2731 72.7702 72.2892 72.7708 72.3054 72.7708C74.0561 72.7708 75.8075 72.1046 77.1413 70.772C79.8056 68.1054 79.8052 63.7684 77.1407 61.1041L76.1935 60.1569L73.3733 57.3356L62.6395 46.6017L59.4058 48.8927L72.3022 61.7891C72.3036 61.7905 72.305 61.7919 72.3064 61.7933C72.3086 61.7955 72.3107 61.7977 72.313 61.7998L74.379 63.8659C75.521 65.0079 75.5208 66.8671 74.3796 68.0093C73.236 69.1513 71.3776 69.1519 70.2356 68.0104L68.1627 65.9376C67.3998 65.1749 66.1631 65.1749 65.4004 65.9376C64.6377 66.7003 64.6377 67.937 65.4004 68.6997L67.4727 70.7718C68.6147 71.9138 68.6147 73.772 67.4721 74.9146C66.3278 76.0599 64.476 76.0603 63.3312 74.9148L63.3299 74.9134L61.2578 72.8431C60.4943 72.0806 59.258 72.0812 58.4955 72.8443C57.7332 73.6074 57.7337 74.8439 58.4966 75.6064L60.5678 77.6756C61.7096 78.8185 61.7096 80.6781 60.5691 81.8197C59.4258 82.9619 57.5668 82.9625 56.4244 81.8203L54.3521 79.748C53.5892 78.9853 52.3525 78.9853 51.5898 79.748C50.827 80.5107 50.827 81.7475 51.5898 82.5102L53.662 84.5823C54.804 85.7243 54.804 87.5825 53.6614 88.7251C52.5167 89.8708 50.664 89.8706 49.5181 88.7247L46.0665 85.2717Z" fill="#034F9A"/>
</g>
<defs>
<clipPath id="clip0_2_850">
<rect width="100" height="100" fill="white"/>
</clipPath>
</defs>
</svg>
