<svg fill="#fff" class="svg-icon" xmlns="http://www.w3.org/2000/svg" xmlns:xlink="http://www.w3.org/1999/xlink"><defs><symbol viewBox="0 0 100 100" fill="none" id="chat 1">
<path d="M50 65.625C48.922 65.625 48.0469 66.5001 48.0469 67.5781C48.0469 68.6562 48.922 69.5312 50 69.5312C51.078 69.5312 51.9531 68.6562 51.9531 67.5781C51.9531 66.5001 51.078 65.625 50 65.625Z" fill="#034F9A" />
<path d="M94.1406 26.5625H63.6719V12.8906C63.6719 9.65958 61.0435 7.03125 57.8125 7.03125H5.85938C2.62833 7.03125 0 9.65958 0 12.8906V55.8594C0 59.0904 2.62833 61.7188 5.85938 61.7188H12.3047V71.4844C12.3047 72.2046 12.7014 72.8661 13.3362 73.2063C13.9694 73.5458 14.74 73.51 15.3412 73.1094L32.4272 61.7188H36.3281V75.3906C36.3281 78.6217 38.9565 81.25 42.1875 81.25H68.1587L85.2448 92.6407C85.8345 93.0344 86.6058 93.0824 87.2498 92.7376C87.8845 92.3973 88.2812 91.7358 88.2812 91.0156V81.25H94.1406C97.3717 81.25 100 78.6217 100 75.3906V32.4219C100 29.1908 97.3717 26.5625 94.1406 26.5625ZM31.8359 57.8125C31.4507 57.8125 31.0738 57.9269 30.7526 58.1406L16.2109 67.8345V59.7656C16.2109 58.6868 15.3366 57.8125 14.2578 57.8125H5.85938C4.7821 57.8125 3.90625 56.9366 3.90625 55.8594V12.8906C3.90625 11.8134 4.7821 10.9375 5.85938 10.9375H57.8125C58.8898 10.9375 59.7656 11.8134 59.7656 12.8906V55.8594C59.7656 56.9366 58.8898 57.8125 57.8125 57.8125H31.8359ZM96.0938 75.3906C96.0938 76.4679 95.2179 77.3438 94.1406 77.3438H86.3281C85.2493 77.3438 84.375 78.2181 84.375 79.2969V87.3657L69.8334 77.6718C69.5122 77.4574 69.1353 77.3438 68.75 77.3438H42.1875C41.1102 77.3438 40.2344 76.4671 40.2344 75.3906V61.7188H57.8125C60.3584 61.7188 62.5298 60.0853 63.3362 57.8125H86.3281C87.4069 57.8125 88.2812 56.9374 88.2812 55.8594C88.2812 54.7806 87.4069 53.9062 86.3281 53.9062H63.6719V46.0938H86.3281C87.4069 46.0938 88.2812 45.2187 88.2812 44.1406C88.2812 43.0618 87.4069 42.1875 86.3281 42.1875H63.6719V30.4688H94.1406C95.2179 30.4688 96.0938 31.3446 96.0938 32.4219V75.3906Z" fill="#1D1D1D" />
<path fill-rule="evenodd" clip-rule="evenodd" d="M63.6719 26.5625H94.1406C97.3717 26.5625 100 29.1908 100 32.4219V75.3906C100 78.6217 97.3717 81.25 94.1406 81.25H88.2812V91.0156C88.2812 91.7358 87.8845 92.3973 87.2498 92.7376C86.6058 93.0824 85.8345 93.0344 85.2448 92.6407L68.1587 81.25H42.1875C38.9565 81.25 36.3281 78.6217 36.3281 75.3906V61.7188H40.2344V75.3906C40.2344 76.4671 41.1102 77.3438 42.1875 77.3438H68.75C69.1353 77.3438 69.5122 77.4574 69.8334 77.6718L84.375 87.3657V79.2969C84.375 78.2181 85.2493 77.3438 86.3281 77.3438H94.1406C95.2179 77.3438 96.0938 76.4679 96.0938 75.3906V32.4219C96.0938 31.3446 95.2179 30.4688 94.1406 30.4688H63.6719V26.5625ZM63.6719 42.1875V46.0938H86.3281C87.4069 46.0938 88.2812 45.2187 88.2812 44.1406C88.2812 43.0618 87.4069 42.1875 86.3281 42.1875H63.6719ZM63.6719 53.9062L63.3362 57.8125H86.3281C87.4069 57.8125 88.2812 56.9374 88.2812 55.8594C88.2812 54.7806 87.4069 53.9062 86.3281 53.9062H63.6719Z" fill="#034F9A" />
<path d="M86.3281 65.625H57.8125C56.7337 65.625 55.8594 66.4993 55.8594 67.5781C55.8594 68.6569 56.7337 69.5312 57.8125 69.5312H86.3281C87.4069 69.5312 88.2812 68.6569 88.2812 67.5781C88.2812 66.4993 87.4069 65.625 86.3281 65.625Z" fill="#1D1D1D" />
<path d="M41.3629 48.3635C41.9649 47.9264 42.2655 47.1855 42.1403 46.4531L40.6984 38.057L46.7989 32.1114C47.3314 31.5934 47.5229 30.8167 47.2932 30.1094C47.0636 29.4022 46.4525 28.8872 45.7162 28.7804L37.2873 27.5566L33.5176 19.9173C33.1888 19.2505 32.509 18.8286 31.7659 18.8286C31.0228 18.8286 30.3438 19.2505 30.0149 19.9173L26.2445 27.5566L17.8155 28.7804C17.0793 28.8872 16.4682 29.4022 16.2386 30.1094C16.0089 30.8167 16.2004 31.5934 16.7329 32.1114L22.8334 38.057L21.3937 46.4531C21.2678 47.1863 21.5692 47.9264 22.1712 48.3635C22.7724 48.8007 23.5696 48.8579 24.2281 48.5123L31.7659 44.5488L39.306 48.5123C39.9652 48.8587 40.7632 48.7992 41.3629 48.3635ZM32.6746 40.6128C32.1054 40.3137 31.4256 40.3137 30.8565 40.6128L25.9126 43.2129L26.8571 37.7053C26.9655 37.072 26.7549 36.425 26.2949 35.9764L22.294 32.0771L27.8215 31.2752C28.4578 31.1821 29.0079 30.7831 29.2924 30.2063L31.7659 25.1946L34.2393 30.2063C34.5239 30.7831 35.074 31.1821 35.7103 31.2752L41.2378 32.0771L37.2369 35.9764C36.7761 36.425 36.5663 37.072 36.6754 37.706L37.6207 43.2129L32.6746 40.6128Z" fill="#034F9A" />
</symbol><symbol viewBox="0 0 100 100" fill="none" id="euro 1">
<g clip-path="url(#euro 1_clip0_2_871)">
<path d="M49.9991 86.1208C69.9153 86.1208 86.118 69.9178 86.118 50.0018C86.118 30.0858 69.9153 13.8829 49.9991 13.8829C30.0831 13.8829 13.8802 30.0858 13.8802 50.0018C13.8802 69.9178 30.0831 86.1208 49.9991 86.1208ZM49.9991 17.8196C67.7444 17.8196 82.1813 32.2565 82.1813 50.0018C82.1813 67.7471 67.7444 82.1841 49.9991 82.1841C32.2538 82.1841 17.8168 67.7471 17.8168 50.0018C17.8168 32.2565 32.2538 17.8196 49.9991 17.8196ZM25.2654 48.2303H27.6294C27.5835 48.8149 27.5601 49.4056 27.5601 50.0018C27.5601 50.7321 27.5951 51.4543 27.6638 52.167H25.2656C24.2173 52.167 23.3018 52.9581 23.2341 54.0044C23.1599 55.1508 24.0677 56.1037 25.1981 56.1037H28.4031C31.0675 65.521 39.7403 72.4408 49.9991 72.4408C54.7922 72.4408 59.3605 70.9337 63.233 68.1137C64.1154 67.471 64.4449 66.1695 63.6755 65.3865L58.9879 58.9873C58.359 58.1287 57.1544 57.9391 56.2541 58.5863C54.416 59.9075 52.265 60.6308 49.9991 60.6308C46.4069 60.6308 43.2253 58.8397 41.3004 56.1037H51.5064C52.5548 56.1037 53.4702 55.3126 53.5379 54.2662C53.6122 53.1199 52.7042 52.167 51.5739 52.167H39.5917C39.4464 51.4678 39.3701 50.7435 39.3701 50.0018C39.3701 49.3983 39.4207 48.8067 39.5177 48.2303H51.5062C52.5546 48.2303 53.47 47.4393 53.5378 46.3929C53.612 45.2465 52.704 44.2937 51.5737 44.2937H41.0363C42.9259 41.337 46.2374 39.3728 49.9991 39.3728C52.4896 39.3728 54.8231 40.2125 56.7469 41.8008C57.5848 42.493 58.8261 42.3745 59.5177 41.536L64.5305 35.4647C65.2228 34.6264 65.1043 33.3858 64.266 32.6937C60.2586 29.3849 55.1915 27.5628 49.9991 27.5628C39.598 27.5628 30.8271 34.6762 28.2956 44.2937H25.1981C24.0677 44.2937 23.1599 45.2465 23.2341 46.3929C23.3018 47.4393 24.2171 48.2303 25.2654 48.2303ZM49.9991 31.4995C53.6202 31.4995 57.1674 32.5746 60.1744 34.5577L57.6528 37.6118C55.3622 36.183 52.751 35.4362 49.9989 35.4362C41.9673 35.4362 35.4332 41.9702 35.4332 50.0018C35.4332 58.0334 41.9673 64.5675 49.9989 64.5675C52.4434 64.5675 54.8006 63.9676 56.9144 62.8188L59.2575 66.0176C56.4521 67.6497 53.2874 68.5042 49.9989 68.5042C39.7966 68.5042 31.4965 60.2041 31.4965 50.0018C31.4965 39.7996 39.797 31.4995 49.9991 31.4995ZM16.1741 17.9792C16.1741 19.0663 15.2928 19.9475 14.2057 19.9475C13.1186 19.9475 12.2374 19.0663 12.2374 17.9792C12.2374 16.8921 13.1186 16.0109 14.2057 16.0109C15.2928 16.0107 16.1741 16.8921 16.1741 17.9792ZM21.8873 13.5148C42.0362 -2.01236 70.9548 1.7383 86.4819 21.8871C102.009 42.036 98.2626 70.9573 78.1138 86.4847C57.9649 102.012 29.0436 98.2654 13.5162 78.1165C1.56351 62.6061 1.03658 41.9 10.6167 26.1043C11.1814 25.1754 10.8861 23.9645 9.95727 23.3998C9.02841 22.8351 7.81749 23.1303 7.25278 24.0592C-3.14789 41.2054 -2.57708 63.6823 10.3982 80.5195C27.2526 102.39 58.6458 106.457 80.5169 89.6029C102.388 72.7485 106.455 41.3553 89.6004 19.4842C72.7459 -2.38694 41.3465 -6.46139 19.4801 10.399C18.6191 11.0627 18.4605 12.3 19.1246 13.1605C19.7885 14.0213 21.0266 14.179 21.8873 13.5148Z" fill="#1D1D1D" />
<path fill-rule="evenodd" clip-rule="evenodd" d="M25.2653 48.2303H27.6292C27.5834 48.8149 27.56 49.4056 27.56 50.0018C27.56 50.7321 27.595 51.4543 27.6637 52.167H25.2655C24.2171 52.167 23.3017 52.9581 23.234 54.0044C23.1597 55.1508 24.0675 56.1037 25.198 56.1037H28.403C31.0673 65.521 39.7402 72.4408 49.999 72.4408C54.792 72.4408 59.3604 70.9337 63.2328 68.1137C64.1152 67.471 64.4448 66.1695 63.6753 65.3865L58.9877 58.9873C58.3589 58.1287 57.1542 57.9391 56.2539 58.5863C54.4159 59.9075 52.2649 60.6308 49.999 60.6308C46.4067 60.6308 43.2251 58.8397 41.3003 56.1037H51.5063C52.5546 56.1037 53.4701 55.3126 53.5378 54.2662C53.612 53.1199 52.704 52.167 51.5738 52.167H39.5916C39.4463 51.4678 39.37 50.7435 39.37 50.0018C39.37 49.3983 39.4205 48.8067 39.5176 48.2303H51.5061C52.5544 48.2303 53.4699 47.4393 53.5376 46.3929C53.6118 45.2465 52.7038 44.2937 51.5736 44.2937H41.0362C42.9258 41.337 46.2373 39.3728 49.999 39.3728C52.4895 39.3728 54.8229 40.2125 56.7468 41.8008C57.5847 42.493 58.8259 42.3745 59.5176 41.536L64.5304 35.4647C65.2226 34.6264 65.1041 33.3858 64.2658 32.6937C60.2585 29.3849 55.1914 27.5628 49.999 27.5628C39.5979 27.5628 30.827 34.6762 28.2955 44.2937H25.198C24.0675 44.2937 23.1597 45.2465 23.234 46.3929C23.3017 47.4393 24.2169 48.2303 25.2653 48.2303ZM49.999 31.4995C53.6201 31.4995 57.1672 32.5746 60.1743 34.5577L57.6526 37.6118C55.3621 36.183 52.7509 35.4362 49.9988 35.4362C41.9672 35.4362 35.4331 41.9702 35.4331 50.0018C35.4331 58.0334 41.9672 64.5675 49.9988 64.5675C52.4432 64.5675 54.8005 63.9676 56.9143 62.8188L59.2574 66.0176C56.4519 67.6497 53.2873 68.5042 49.9988 68.5042C39.7965 68.5042 31.4964 60.2041 31.4964 50.0018C31.4964 39.7996 39.7969 31.4995 49.999 31.4995ZM16.1739 17.9792C16.1739 19.0663 15.2927 19.9475 14.2056 19.9475C13.1185 19.9475 12.2373 19.0663 12.2373 17.9792C12.2373 16.8921 13.1185 16.0109 14.2056 16.0109C15.2927 16.0107 16.1739 16.8921 16.1739 17.9792Z" fill="#034F9A" />
<path fill-rule="evenodd" clip-rule="evenodd" d="M49.999 86.1208C69.9151 86.1208 86.1179 69.9178 86.1179 50.0018C86.1179 30.0858 69.9151 13.8829 49.999 13.8829C30.083 13.8829 13.88 30.0858 13.88 50.0018C13.88 69.9178 30.083 86.1208 49.999 86.1208ZM82.1812 50.0018C82.1812 32.2565 67.7443 17.8196 49.999 17.8196C32.2536 17.8196 17.8167 32.2565 17.8167 50.0018C17.8167 67.7471 32.2536 82.1841 49.999 82.1841C67.7443 82.1841 82.1812 67.7471 82.1812 50.0018Z" fill="#034F9A" />
</g>
<defs>

</defs>
</symbol><clipPath id="euro 1_clip0_2_871">
<rect width="100" height="100" fill="white" />
</clipPath><symbol viewBox="0 0 100 100" fill="none" id="handshake 1">
<g clip-path="url(#handshake 1_clip0_2_850)">
<path d="M88.3793 29.1777C87.6176 28.4141 86.3812 28.4141 85.6176 29.1777C84.8558 29.9395 84.8558 31.1758 85.6176 31.9395C86.3812 32.7012 87.6176 32.7012 88.3793 31.9395C89.143 31.1758 89.143 29.9395 88.3793 29.1777Z" fill="#1D1D1D" />
<path d="M14.3826 31.4941C13.6189 30.7305 12.3826 30.7305 11.6209 31.4941C10.8572 32.2559 10.8572 33.4942 11.6209 34.2559C12.3826 35.0196 13.6189 35.0196 14.3826 34.2559C15.1443 33.4942 15.1443 32.2559 14.3826 31.4941Z" fill="#034F9A" />
<path fill-rule="evenodd" clip-rule="evenodd" d="M15.4033 55.1685L12.2309 58.341C9.55896 61.01 9.55525 65.336 12.2293 68.0075C13.5213 69.3009 15.2559 70.0294 17.1377 70.0097C17.1194 71.7843 17.7842 73.5644 19.135 74.9152C20.4682 76.2472 22.2186 76.913 23.9692 76.913C23.9942 76.913 24.019 76.9115 24.044 76.9113C24.0249 78.6867 24.6895 80.4684 26.0407 81.8209C27.3316 83.1117 29.048 83.8229 30.874 83.8229C30.8988 83.8229 30.9234 83.8213 30.948 83.8211C30.9298 85.5952 31.5947 87.3752 32.9457 88.726C35.6111 91.3891 39.9481 91.3905 42.6135 88.7254L43.3043 88.0346L46.7555 91.4874C49.4272 94.1589 53.7525 94.1618 56.4242 91.4874C57.7755 90.136 58.4404 88.3547 58.4211 86.5795C58.4457 86.5797 58.4703 86.5813 58.4949 86.5813C60.2457 86.5813 61.9971 85.9151 63.3309 84.5824C64.6801 83.2318 65.3444 81.4523 65.326 79.6783C67.2051 79.6988 68.9417 78.9711 70.2346 77.6769C71.586 76.3255 72.2508 74.5443 72.2315 72.7691C72.2561 72.7693 72.2807 72.7708 72.3054 72.7708C74.0561 72.7708 75.8075 72.1046 77.1413 70.772C79.8056 68.1054 79.8052 63.7684 77.1407 61.1041L76.1935 60.1569L73.3733 57.3356L62.6395 46.6017L59.4058 48.8927L72.3022 61.7891C72.3057 61.7926 72.3093 61.7963 72.313 61.7998L74.379 63.8659C75.521 65.0079 75.5208 66.8671 74.3796 68.0093C73.236 69.1513 71.3776 69.1519 70.2356 68.0104L68.1627 65.9376C67.3998 65.1749 66.1631 65.1749 65.4004 65.9376C64.6377 66.7003 64.6377 67.937 65.4004 68.6997L67.4727 70.7718C68.6147 71.9138 68.6147 73.772 67.4721 74.9146C66.3278 76.0599 64.476 76.0603 63.3312 74.9148L63.3299 74.9134L61.2578 72.8431C60.4943 72.0806 59.258 72.0812 58.4955 72.8443C57.7332 73.6074 57.7337 74.8439 58.4966 75.6064L60.5678 77.6756C61.7096 78.8185 61.7096 80.6781 60.5691 81.8197C59.4258 82.9619 57.5668 82.9625 56.4244 81.8203L54.3521 79.748C53.5892 78.9853 52.3525 78.9853 51.5898 79.748C50.827 80.5107 50.827 81.7475 51.5898 82.5102L53.662 84.5823C54.804 85.7243 54.804 87.5825 53.6614 88.7251C52.5167 89.8708 50.664 89.8706 49.5181 88.7247L46.0665 85.2717L46.7575 84.5807C49.422 81.9109 49.4364 77.5996 46.7561 74.9136C45.4053 73.563 43.6256 72.8984 41.8516 72.9165C41.8703 71.0069 41.1246 69.2823 39.8516 68.0093C38.5578 66.7155 36.8238 65.9889 34.9453 66.0077C34.9642 64.1348 34.2414 62.3989 32.9455 61.103C31.6523 59.8102 29.9185 59.084 28.0409 59.1029C28.0616 57.2107 27.3216 55.4793 26.0409 54.1988C24.1017 52.2595 21.2889 51.7271 18.8737 52.6029L15.4033 55.1685ZM14.9916 65.2454C16.1434 66.3983 17.9952 66.3864 19.1336 65.2469L23.278 61.1045L23.279 61.1035C24.4214 59.9613 24.4257 58.1078 23.279 56.9613C22.1327 55.8146 20.2797 55.8152 19.1358 56.9605C16.4905 59.6059 15.5024 60.5938 15.1588 60.9374L15.0192 61.077L15.0131 61.083L15.0016 61.0946L14.992 61.1041C13.8457 62.2495 13.8463 64.101 14.9916 65.2454ZM21.896 68.0089C20.7548 69.1513 20.7548 71.0105 21.8966 72.1523C23.0389 73.2941 24.8989 73.2945 26.0407 72.1521L30.1833 68.0095C31.3275 66.8653 31.3277 65.0098 30.1833 63.8655C29.0386 62.7207 27.1851 62.7219 26.0411 63.8655L26.0401 63.8665L21.8983 68.0065L21.8973 68.0075L21.896 68.0089ZM28.8034 79.0594C29.9476 80.2035 31.8015 80.2023 32.9449 79.0588L37.0894 74.9142C38.2363 73.7673 38.2316 71.914 37.0894 70.772C35.9431 69.6253 34.0902 69.6259 32.9463 70.7712L28.8029 74.9146C27.6607 76.0566 27.6611 77.916 28.8034 79.0594ZM39.8516 85.9627L43.9942 81.8201C45.1524 80.6598 45.1288 78.8131 43.9928 77.6746C42.8481 76.53 40.9899 76.5382 39.852 77.6761L35.7074 81.8207C34.5654 82.9627 34.5654 84.8209 35.7074 85.9629C36.8498 87.1045 38.7096 87.1051 39.8516 85.9627Z" fill="#1D1D1D" />
<path fill-rule="evenodd" clip-rule="evenodd" d="M38.4695 26.5769L44.4745 27.4347L51.5878 24.5054L38.7002 22.6646L25.4319 9.39651C24.8556 8.81986 24.1849 8.82379 24.068 8.82448C24.0582 8.82453 24.0523 8.82457 24.0507 8.82424C23.5327 8.82424 23.036 9.0301 22.6696 9.39631L0.571782 31.4939C-0.190333 32.2563 -0.190919 33.4936 0.571977 34.2563L13.8822 47.5646L15.4033 55.1685L18.8737 52.6029L17.8016 47.2431L38.4695 26.5769ZM4.71537 32.8748L24.0507 13.5395L26.813 16.3018L17.1444 25.9705C16.3817 26.7332 16.3817 27.9699 17.1444 28.7328C17.9073 29.4955 19.1436 29.4955 19.9067 28.7328L29.5753 19.0642L35.0172 24.506L15.6817 43.8395L4.71537 32.8748Z" fill="#1D1D1D" />
<path fill-rule="evenodd" clip-rule="evenodd" d="M99.4282 29.1783L77.331 7.07969C76.5685 6.31719 75.3321 6.31719 74.5686 7.07969C72.5501 9.09826 62.9863 18.662 61.0342 20.6144L51.5878 24.5054L44.4745 27.4347L42.5606 28.2234C42.3223 28.3217 42.1059 28.466 41.9235 28.6482L28.8023 41.7694C26.1372 44.4345 26.1372 48.7708 28.8023 51.4359C31.4757 54.109 35.7963 54.1101 38.4711 51.4355L43.3018 46.6027C44.0649 45.8407 45.3051 45.8405 46.0659 46.6019C49.7501 50.2857 55.1447 50.9332 59.4058 48.8927L62.6395 46.6017L64.0201 45.2212C64.7828 44.4585 64.7828 43.2218 64.0201 42.4591C63.2574 41.6964 62.0211 41.6964 61.2578 42.4591C60.8978 42.8074 60.61 43.1001 60.3581 43.3564C59.7602 43.9647 59.364 44.3676 58.6836 44.8204C55.6941 46.8204 51.5462 46.5575 48.8284 43.8399C46.5454 41.5565 42.8278 41.5559 40.5405 43.8401L35.709 48.6738C34.5621 49.8205 32.7119 49.8212 31.5646 48.6738C30.4226 47.5318 30.4226 45.6735 31.5646 44.5315L44.4096 31.6863L61.6787 24.5732L81.7308 44.6253L73.3733 57.3356L76.1935 60.1569L85.7584 45.6101L99.428 31.9404C100.191 31.1777 100.191 29.941 99.4282 29.1783ZM64.9016 22.2712L84.2371 41.6069L95.2854 30.5584L75.9499 11.2227L73.1886 13.984L82.8564 23.6519C83.6191 24.4148 83.6191 25.6515 82.8564 26.4142C82.0933 27.1769 80.857 27.1769 80.0941 26.4142L70.4262 16.7464L64.9016 22.2712Z" fill="#1D1D1D" />
<path fill-rule="evenodd" clip-rule="evenodd" d="M38.4695 26.5769L44.4745 27.4347L51.5878 24.5054L38.7002 22.6646L25.4319 9.39651C24.8556 8.81986 24.1849 8.82379 24.068 8.82448C24.0582 8.82453 24.0507 8.82424 24.0507 8.82424C23.5327 8.82424 23.036 9.0301 22.6696 9.39631L0.571782 31.4939C-0.190333 32.2563 -0.190919 33.4936 0.571977 34.2563L13.8822 47.5646L15.4033 55.1685L18.8737 52.6029L17.8016 47.2431L38.4695 26.5769ZM4.71537 32.8748L24.0507 13.5395L26.813 16.3018L17.1444 25.9705C16.3817 26.7332 16.3817 27.9699 17.1444 28.7328C17.9073 29.4955 19.1436 29.4955 19.9067 28.7328L29.5753 19.0642L35.0172 24.506L15.6817 43.8395L4.71537 32.8748Z" fill="#034F9A" />
<path fill-rule="evenodd" clip-rule="evenodd" d="M46.0665 85.2717L43.3043 88.0346L46.7555 91.4874C49.4272 94.1589 53.7525 94.1618 56.4242 91.4874C57.7755 90.136 58.4404 88.3547 58.4211 86.5795C58.4336 86.5796 58.4461 86.5801 58.4586 86.5805C58.4707 86.5809 58.4828 86.5813 58.4949 86.5813C60.2457 86.5813 61.9971 85.9151 63.3309 84.5824C64.6801 83.2318 65.3444 81.4523 65.326 79.6783C67.2051 79.6988 68.9417 78.9711 70.2346 77.6769C71.586 76.3255 72.2508 74.5443 72.2315 72.7691C72.24 72.7691 72.2485 72.7694 72.2569 72.7696C72.2731 72.7702 72.2892 72.7708 72.3054 72.7708C74.0561 72.7708 75.8075 72.1046 77.1413 70.772C79.8056 68.1054 79.8052 63.7684 77.1407 61.1041L76.1935 60.1569L73.3733 57.3356L62.6395 46.6017L59.4058 48.8927L72.3022 61.7891C72.3036 61.7905 72.305 61.7919 72.3064 61.7933C72.3086 61.7955 72.3107 61.7977 72.313 61.7998L74.379 63.8659C75.521 65.0079 75.5208 66.8671 74.3796 68.0093C73.236 69.1513 71.3776 69.1519 70.2356 68.0104L68.1627 65.9376C67.3998 65.1749 66.1631 65.1749 65.4004 65.9376C64.6377 66.7003 64.6377 67.937 65.4004 68.6997L67.4727 70.7718C68.6147 71.9138 68.6147 73.772 67.4721 74.9146C66.3278 76.0599 64.476 76.0603 63.3312 74.9148L63.3299 74.9134L61.2578 72.8431C60.4943 72.0806 59.258 72.0812 58.4955 72.8443C57.7332 73.6074 57.7337 74.8439 58.4966 75.6064L60.5678 77.6756C61.7096 78.8185 61.7096 80.6781 60.5691 81.8197C59.4258 82.9619 57.5668 82.9625 56.4244 81.8203L54.3521 79.748C53.5892 78.9853 52.3525 78.9853 51.5898 79.748C50.827 80.5107 50.827 81.7475 51.5898 82.5102L53.662 84.5823C54.804 85.7243 54.804 87.5825 53.6614 88.7251C52.5167 89.8708 50.664 89.8706 49.5181 88.7247L46.0665 85.2717Z" fill="#034F9A" />
</g>
<defs>

</defs>
</symbol><clipPath id="handshake 1_clip0_2_850">
<rect width="100" height="100" fill="white" />
</clipPath><symbol viewBox="0 0 100 100" fill="none" id="medal 1">
<g clip-path="url(#medal 1_clip0_2_887)">
<path d="M20.8982 37.1094C20.8982 53.2639 34.0406 66.4063 50.1951 66.4063C66.3496 66.4063 79.492 53.2639 79.492 37.1094C79.492 20.9549 66.3496 7.8125 50.1951 7.8125C34.0406 7.8125 20.8982 20.9549 20.8982 37.1094ZM50.1951 11.7188C64.1958 11.7188 75.5858 23.1087 75.5858 37.1094C75.5858 51.1101 64.1958 62.5001 50.1951 62.5001C36.1944 62.5001 24.8044 51.1101 24.8044 37.1094C24.8044 23.1087 36.1944 11.7188 50.1951 11.7188Z" fill="#034F9A" />
<path d="M32.107 33.6272L39.6777 41.0865L37.9359 51.5701C37.8146 52.3002 38.1159 53.0357 38.7148 53.4706C39.313 53.9054 40.1057 53.9642 40.7626 53.6239L50.1948 48.7258L59.6263 53.6239C60.2778 53.9619 61.0705 53.9092 61.674 53.4706C62.2729 53.0357 62.5743 52.3002 62.453 51.5701L60.7112 41.0865L68.2818 33.6272C68.809 33.1084 68.9975 32.3363 68.7686 31.6321C68.5397 30.9287 67.9332 30.4152 67.2015 30.3046L56.6951 28.723L51.9412 19.216C51.6108 18.5546 50.9341 18.1365 50.1948 18.1365C49.4547 18.1365 48.7788 18.5546 48.4477 19.216L43.6938 28.723L33.1873 30.3046C32.4557 30.4145 31.8491 30.9287 31.6202 31.6321C31.3914 32.3363 31.5806 33.1084 32.107 33.6272ZM45.2784 32.4348C45.9071 32.3401 46.4503 31.9457 46.7349 31.3773L50.1948 24.4567L53.6547 31.3773C53.9393 31.9457 54.4825 32.3401 55.1112 32.4348L62.7582 33.586L57.2474 39.0144C56.795 39.4607 56.5875 40.0993 56.6912 40.7264L57.9593 48.3566L51.0943 44.7921C50.8128 44.6456 50.5038 44.5724 50.1948 44.5724C49.8858 44.5724 49.5768 44.6456 49.2945 44.7921L42.4296 48.3566L43.6976 40.7264C43.8021 40.0993 43.5946 39.4607 43.1414 39.0144L37.6315 33.586L45.2784 32.4348Z" fill="#034F9A" />
<path d="M52.1484 1.95313C52.1484 3.03193 51.2741 3.90626 50.1953 3.90626C49.1165 3.90626 48.2422 3.03193 48.2422 1.95313C48.2422 0.87433 49.1165 0 50.1953 0C51.2741 0 52.1484 0.87433 52.1484 1.95313Z" fill="#034F9A" />
<path d="M40.9902 1.15134C24.5603 5.34522 13.0857 20.1318 13.0857 37.1095C13.0857 47.6541 17.5191 57.5899 25.3019 64.6265L13.5351 85.3639C13.1566 86.0315 13.2039 86.8586 13.6556 87.4781C14.1073 88.0983 14.8794 88.3966 15.6309 88.2402L28.9938 85.4654L33.6904 98.7001C33.9453 99.4204 34.5976 99.9247 35.359 99.9926C36.1204 100.06 36.8505 99.6767 37.2282 99.0122L50.1951 76.2155L63.1613 99.0122C63.5107 99.6264 64.1608 99.9994 64.8581 99.9994C64.9153 99.9994 64.9733 99.9971 65.0305 99.9926C65.7919 99.9247 66.4442 99.4196 66.6998 98.7001L71.3957 85.4654L84.7586 88.2402C85.5094 88.3959 86.2822 88.0976 86.7339 87.4781C87.1863 86.8586 87.2328 86.0315 86.8544 85.3639L75.0876 64.6265C82.8703 57.5899 87.3038 47.6541 87.3038 37.1095C87.3038 20.1318 75.8292 5.34522 59.4 1.15134C58.354 0.884307 57.2912 1.51526 57.0242 2.56049C56.7572 3.60572 57.3881 4.66925 58.4334 4.93628C73.1322 8.68843 83.3983 21.9186 83.3983 37.1095C83.3983 55.5978 68.3829 70.3127 50.1951 70.3127C31.9944 70.3127 16.9919 55.5856 16.9919 37.1095C16.9919 21.9186 27.2573 8.68843 41.9561 4.93628C43.0014 4.66925 43.6323 3.60572 43.366 2.56049C43.099 1.51526 42.0362 0.884307 40.9902 1.15134ZM35.9442 93.3702L32.1058 82.554C31.7793 81.6339 30.8241 81.0961 29.8681 81.2944L19.0626 83.5382L28.375 67.1259C33.8049 71.0733 40.2342 73.4781 46.9198 74.0732L35.9442 93.3702ZM70.5214 81.2944C69.5662 81.0961 68.6102 81.6339 68.2837 82.554L64.4461 93.3702L53.4697 74.0732C60.1561 73.4781 66.5846 71.0733 72.0152 67.1259L81.3277 83.5382L70.5214 81.2944Z" fill="#1D1D1D" />
</g>
<defs>

</defs>
</symbol><clipPath id="medal 1_clip0_2_887">
<rect width="100" height="100" fill="white" />
</clipPath><symbol viewBox="0 0 100 100" fill="none" id="technology 1">
<g clip-path="url(#technology 1_clip0_2_876)">
<path d="M22.7249 51.9516C23.7717 51.9165 24.6094 51.0551 24.6094 50C24.6094 48.9456 23.7732 48.0858 22.7264 48.0492C22.7028 48.0469 22.6799 48.0469 22.6562 48.0469C21.5782 48.0469 20.7031 48.922 20.7031 50C20.7031 51.078 21.5782 51.9531 22.6562 51.9531C22.6799 51.9531 22.7028 51.9531 22.7249 51.9516Z" fill="#034F9A" />
<path d="M49.9999 20.7031C36.5669 20.7031 25.428 29.6913 21.8918 41.7144C21.5874 42.7497 22.1794 43.8354 23.2147 44.1398C24.2493 44.4434 25.3349 43.8521 25.6393 42.8168C28.7926 32.0968 38.8099 24.6094 49.9999 24.6094C64.0005 24.6094 75.3904 36 75.3904 49.9999C75.3904 60.5414 68.9322 69.602 59.7655 73.4365V58.6218L67.0057 51.3808C67.372 51.0146 67.5779 50.5179 67.5779 49.9999V46.0937C67.5779 45.0149 66.7036 44.1405 65.6248 44.1405C64.546 44.1405 63.6717 45.0149 63.6717 46.0937V49.1912L56.4314 56.4314C56.0652 56.7976 55.8592 57.2943 55.8592 57.8124V74.7068C54.5912 75.0074 53.2866 75.2142 51.953 75.3164V47.7996C55.3191 46.9298 57.8124 43.8682 57.8124 40.2343C57.8124 35.9268 54.3074 32.4218 49.9999 32.4218C45.6924 32.4218 42.1874 35.9268 42.1874 40.2343C42.1874 43.8682 44.6807 46.9298 48.0468 47.7996V75.3149C46.7155 75.2149 45.4108 75.012 44.1405 74.716V57.8124C44.1405 57.2943 43.9346 56.7976 43.5683 56.4314L36.3281 49.1912V46.0937C36.3281 45.0149 35.4538 44.1405 34.375 44.1405C33.2962 44.1405 32.4218 45.0149 32.4218 46.0937V49.9999C32.4218 50.5179 32.6278 51.0146 32.994 51.3808L40.2343 58.6218V73.4648C33.3183 70.6091 27.8877 64.7619 25.6378 57.1791C25.3311 56.1446 24.2439 55.5556 23.2101 55.8623C22.1756 56.169 21.5866 57.2562 21.8933 58.29C25.7423 71.2622 37.5083 79.2966 49.9999 79.2966C66.1207 79.2966 79.2967 66.1818 79.2967 49.9999C79.2967 33.8455 66.1543 20.7031 49.9999 20.7031ZM46.0937 40.2343C46.0937 38.0805 47.8461 36.3281 49.9999 36.3281C52.1537 36.3281 53.9061 38.0805 53.9061 40.2343C53.9061 42.3881 52.1537 44.1405 49.9999 44.1405C47.8461 44.1405 46.0937 42.3881 46.0937 40.2343Z" fill="#1D1D1D" />
<path d="M98.4653 42.2341L90.0524 40.387C89.0591 36.1687 87.4112 32.171 85.1384 28.4715L90.0952 20.8963C90.6018 20.1227 90.4957 19.0996 89.8419 18.4457L81.5549 10.1587C80.901 9.50488 79.8779 9.39959 79.1043 9.90618L71.5291 14.8622C67.8296 12.5894 63.8318 10.9415 59.6143 9.9489L57.7673 1.53524C57.5704 0.639554 56.7762 0.000976562 55.8592 0.000976562H44.1404C43.2234 0.000976562 42.4292 0.639554 42.2323 1.53524L40.3853 9.9489C36.1678 10.9415 32.17 12.5894 28.4705 14.8622L20.8953 9.90618C20.1217 9.39959 19.0986 9.50564 18.4448 10.1587L10.1577 18.4457C9.5039 19.0996 9.39785 20.1227 9.90444 20.8963L14.8612 28.4715C12.5892 32.1702 10.9397 36.168 9.94564 40.387L1.53427 42.2341C0.638578 42.4309 0 43.2244 0 44.1414V55.8601C0 56.7772 0.637815 57.5706 1.5335 57.7682L10.0319 59.6367C11.0473 63.8214 12.6953 67.7658 14.9429 71.395L9.90444 79.106C9.39861 79.8797 9.50466 80.902 10.1577 81.5558L18.4448 89.8428C19.0986 90.4959 20.1202 90.6027 20.8938 90.0977L28.7093 84.9951C32.3302 87.1855 36.2219 88.7824 40.312 89.7536L42.2331 98.4678C42.4307 99.3635 43.2242 100.001 44.1404 100.001H55.8592C56.7762 100.001 57.5697 99.3635 57.7665 98.4678L59.6876 89.7536C63.7784 88.7824 67.6702 87.1855 71.2903 84.9951L79.1058 90.0977C79.8794 90.602 80.9018 90.4967 81.5549 89.8428L89.8419 81.5558C90.4957 80.9028 90.6018 79.8804 90.0959 79.106L85.0567 71.395C87.3051 67.7635 88.953 63.8176 89.9685 59.6367L98.4661 57.7682C99.3618 57.5714 100 56.7772 100 55.8601V44.1414C99.9996 43.2244 99.361 42.4309 98.4653 42.2341ZM96.0934 54.29L87.9185 56.0875C87.1685 56.2523 86.5849 56.8413 86.4262 57.592C85.4603 62.1757 83.6697 66.4596 81.1032 70.3246C80.6714 70.9754 80.6683 71.82 81.0956 72.4738L85.9578 79.9155L79.9138 85.9595L72.3798 81.0416C71.7328 80.6189 70.8982 80.6182 70.2504 81.0378C66.377 83.5479 62.1404 85.2851 57.6566 86.2029C56.9013 86.357 56.3078 86.9422 56.1414 87.6952L54.2898 96.0943H45.7098L43.8582 87.6952C43.6918 86.9422 43.0983 86.357 42.343 86.2029C37.86 85.2851 33.6226 83.5479 29.7499 81.0378C29.1014 80.6174 28.2668 80.6189 27.6198 81.0416L20.0866 85.9595L14.0418 79.9155L18.9048 72.4738C19.332 71.82 19.3282 70.9747 18.8964 70.3246C16.3314 66.4634 14.54 62.1803 13.5734 57.592C13.4147 56.8413 12.8311 56.2523 12.0819 56.0875L3.90623 54.29V45.7123L12.0048 43.9339C12.7601 43.7683 13.346 43.1725 13.5002 42.4149C14.4355 37.8037 16.2246 33.4679 18.8171 29.5304C19.2443 28.8796 19.2458 28.0381 18.8201 27.3866L14.0426 20.086L20.0851 14.0436L27.3856 18.8211C28.0372 19.2468 28.8787 19.246 29.5287 18.818C33.4685 16.2256 37.8035 14.4373 42.4132 13.5034C43.1708 13.3501 43.7674 12.7634 43.9329 12.0081L45.7113 3.90721H54.2883L56.0667 12.0081C56.2322 12.7634 56.8288 13.3501 57.5864 13.5034C62.1961 14.4373 66.5311 16.2256 70.4709 18.818C71.1209 19.246 71.9625 19.2468 72.614 18.8211L79.9145 14.0436L85.957 20.086L81.1795 27.3866C80.7538 28.0381 80.7545 28.8796 81.1825 29.5297C83.7758 33.4695 85.5641 37.8045 86.4979 42.4141C86.6513 43.1725 87.2372 43.7683 87.9933 43.9339L96.0934 45.7123V54.29Z" fill="#034F9A" />
</g>
<defs>

</defs>
</symbol><clipPath id="technology 1_clip0_2_876">
<rect width="100" height="100" fill="white" />
</clipPath><symbol viewBox="0 0 100 100" fill="none" id="uniform 1">
<path d="M92.1448 20.074L83.6721 18.4719V7.97872C83.6721 3.57915 80.0929 0 75.6933 0H24.3065C19.907 0 16.3278 3.57915 16.3278 7.97872V18.4719L7.85059 20.0751C4.06612 20.8017 0.987183 24.5281 0.987183 28.3817V92.7338C0.987183 96.7404 4.24654 100 8.25335 100H91.7465C95.7531 100 99.0127 96.7404 99.0127 92.7338V28.3817C99.0127 24.5281 95.934 20.8017 92.1448 20.074ZM19.5193 7.97872C19.5193 5.33894 21.6668 3.19149 24.3065 3.19149H75.6933C78.3329 3.19149 80.4806 5.33894 80.4806 7.97872V18.9189L64.0444 29.3964L57.5123 19.1496L72.9231 9.32404C73.6661 8.85021 73.8846 7.86362 73.4108 7.12064C72.9368 6.37745 71.9506 6.15915 71.2074 6.63298L54.8436 17.0662H45.1565L28.794 6.63362C28.0506 6.16 27.0644 6.3783 26.5906 7.12128C26.1168 7.86447 26.3351 8.85085 27.0782 9.32468L42.4878 19.1496L35.9557 29.3964L19.5195 18.9189L19.5193 7.97872ZM26.6787 27.2677L35.5855 32.9455C36.3287 33.4194 37.3153 33.2009 37.7889 32.4579L40.068 28.8826L43.801 38.0662L38.9429 69.9955C38.8104 70.8668 39.4091 71.6806 40.2806 71.8132C40.3619 71.8255 40.4427 71.8315 40.5225 71.8315C41.2978 71.8315 41.9778 71.2655 42.098 70.4755L46.8161 39.4677H53.1842L57.9023 70.4755C58.0225 71.2653 58.7027 71.8315 59.478 71.8315C59.5578 71.8315 59.6387 71.8255 59.7199 71.8132C60.5914 71.6806 61.1902 70.8668 61.0576 69.9955L56.1991 38.066L59.9319 28.8826L62.2108 32.4577C62.515 32.9349 63.0308 33.1957 63.5578 33.1957C63.8514 33.1957 64.1482 33.1149 64.414 32.9453L73.321 27.2674V54.3149C73.321 67.1743 62.8591 77.6362 49.9997 77.6362C37.1404 77.6362 26.6785 67.1743 26.6785 54.3149L26.6787 27.2677ZM45.5661 20.2579H54.4338L57.8282 25.5826L53.4814 36.2762H46.5185L42.1716 25.5823L45.5661 20.2579ZM95.8212 92.7338C95.8212 94.9806 93.9933 96.8085 91.7465 96.8085H8.25335C6.00654 96.8085 4.17867 94.9806 4.17867 92.7338V28.3817C4.17867 26.0228 6.13591 23.654 8.44803 23.21L17.5989 21.4796L23.4872 25.2332V54.3151C23.4872 68.9343 35.3808 80.8279 49.9999 80.8279C64.6191 80.8279 76.5127 68.9343 76.5127 54.3151V25.233L82.4008 21.4796L91.5474 23.2092C93.864 23.654 95.8212 26.0228 95.8212 28.3817V92.7338Z" fill="#1D1D1D" />
<path fill-rule="evenodd" clip-rule="evenodd" d="M26.6787 27.2677L23.4872 25.2332V54.3151C23.4872 68.9343 35.3808 80.8279 49.9999 80.8279C64.6191 80.8279 76.5127 68.9343 76.5127 54.3151V25.233L73.321 27.2674V54.3149C73.321 67.1743 62.8591 77.6362 49.9997 77.6362C37.1404 77.6362 26.6785 67.1743 26.6785 54.3149L26.6787 27.2677ZM59.9319 28.8826L57.8282 25.5826L53.4814 36.2762H46.5185L42.1716 25.5823L40.068 28.8826L43.801 38.0662L38.9429 69.9955C38.8104 70.8668 39.4091 71.6806 40.2806 71.8132C40.3619 71.8255 40.4427 71.8315 40.5225 71.8315C41.2978 71.8315 41.9778 71.2655 42.098 70.4755L46.8161 39.4677H53.1842L57.9023 70.4755C58.0225 71.2653 58.7027 71.8315 59.478 71.8315C59.5578 71.8315 59.6387 71.8255 59.7199 71.8132C60.5914 71.6806 61.1902 70.8668 61.0576 69.9955L56.1991 38.066L59.9319 28.8826Z" fill="#034F9A" />
<path d="M85.1064 78.5042C85.9877 78.5042 86.7022 77.7898 86.7022 76.9085C86.7022 76.0272 85.9877 75.3127 85.1064 75.3127C84.2251 75.3127 83.5107 76.0272 83.5107 76.9085C83.5107 77.7898 84.2251 78.5042 85.1064 78.5042Z" fill="#034F9A" />
<path d="M78.7234 84.8873C79.6047 84.8873 80.3192 84.1729 80.3192 83.2915C80.3192 82.4102 79.6047 81.6958 78.7234 81.6958C77.8421 81.6958 77.1277 82.4102 77.1277 83.2915C77.1277 84.1729 77.8421 84.8873 78.7234 84.8873Z" fill="#034F9A" />
</symbol></defs></svg>