<svg width="100" height="100" viewBox="0 0 100 100" fill="none" xmlns="http://www.w3.org/2000/svg">
<g clip-path="url(#clip0_2_871)">
<path d="M49.9991 86.1208C69.9153 86.1208 86.118 69.9178 86.118 50.0018C86.118 30.0858 69.9153 13.8829 49.9991 13.8829C30.0831 13.8829 13.8802 30.0858 13.8802 50.0018C13.8802 69.9178 30.0831 86.1208 49.9991 86.1208ZM49.9991 17.8196C67.7444 17.8196 82.1813 32.2565 82.1813 50.0018C82.1813 67.7471 67.7444 82.1841 49.9991 82.1841C32.2538 82.1841 17.8168 67.7471 17.8168 50.0018C17.8168 32.2565 32.2538 17.8196 49.9991 17.8196ZM25.2654 48.2303H27.6294C27.5835 48.8149 27.5601 49.4056 27.5601 50.0018C27.5601 50.7321 27.5951 51.4543 27.6638 52.167H25.2656C24.2173 52.167 23.3018 52.9581 23.2341 54.0044C23.1599 55.1508 24.0677 56.1037 25.1981 56.1037H28.4031C31.0675 65.521 39.7403 72.4408 49.9991 72.4408C54.7922 72.4408 59.3605 70.9337 63.233 68.1137C64.1154 67.471 64.4449 66.1695 63.6755 65.3865L58.9879 58.9873C58.359 58.1287 57.1544 57.9391 56.2541 58.5863C54.416 59.9075 52.265 60.6308 49.9991 60.6308C46.4069 60.6308 43.2253 58.8397 41.3004 56.1037H51.5064C52.5548 56.1037 53.4702 55.3126 53.5379 54.2662C53.6122 53.1199 52.7042 52.167 51.5739 52.167H39.5917C39.4464 51.4678 39.3701 50.7435 39.3701 50.0018C39.3701 49.3983 39.4207 48.8067 39.5177 48.2303H51.5062C52.5546 48.2303 53.47 47.4393 53.5378 46.3929C53.612 45.2465 52.704 44.2937 51.5737 44.2937H41.0363C42.9259 41.337 46.2374 39.3728 49.9991 39.3728C52.4896 39.3728 54.8231 40.2125 56.7469 41.8008C57.5848 42.493 58.8261 42.3745 59.5177 41.536L64.5305 35.4647C65.2228 34.6264 65.1043 33.3858 64.266 32.6937C60.2586 29.3849 55.1915 27.5628 49.9991 27.5628C39.598 27.5628 30.8271 34.6762 28.2956 44.2937H25.1981C24.0677 44.2937 23.1599 45.2465 23.2341 46.3929C23.3018 47.4393 24.2171 48.2303 25.2654 48.2303ZM49.9991 31.4995C53.6202 31.4995 57.1674 32.5746 60.1744 34.5577L57.6528 37.6118C55.3622 36.183 52.751 35.4362 49.9989 35.4362C41.9673 35.4362 35.4332 41.9702 35.4332 50.0018C35.4332 58.0334 41.9673 64.5675 49.9989 64.5675C52.4434 64.5675 54.8006 63.9676 56.9144 62.8188L59.2575 66.0176C56.4521 67.6497 53.2874 68.5042 49.9989 68.5042C39.7966 68.5042 31.4965 60.2041 31.4965 50.0018C31.4965 39.7996 39.797 31.4995 49.9991 31.4995ZM16.1741 17.9792C16.1741 19.0663 15.2928 19.9475 14.2057 19.9475C13.1186 19.9475 12.2374 19.0663 12.2374 17.9792C12.2374 16.8921 13.1186 16.0109 14.2057 16.0109C15.2928 16.0107 16.1741 16.8921 16.1741 17.9792ZM21.8873 13.5148C42.0362 -2.01236 70.9548 1.7383 86.4819 21.8871C102.009 42.036 98.2626 70.9573 78.1138 86.4847C57.9649 102.012 29.0436 98.2654 13.5162 78.1165C1.56351 62.6061 1.03658 41.9 10.6167 26.1043C11.1814 25.1754 10.8861 23.9645 9.95727 23.3998C9.02841 22.8351 7.81749 23.1303 7.25278 24.0592C-3.14789 41.2054 -2.57708 63.6823 10.3982 80.5195C27.2526 102.39 58.6458 106.457 80.5169 89.6029C102.388 72.7485 106.455 41.3553 89.6004 19.4842C72.7459 -2.38694 41.3465 -6.46139 19.4801 10.399C18.6191 11.0627 18.4605 12.3 19.1246 13.1605C19.7885 14.0213 21.0266 14.179 21.8873 13.5148Z" fill="#1D1D1D"/>
<path fill-rule="evenodd" clip-rule="evenodd" d="M25.2653 48.2303H27.6292C27.5834 48.8149 27.56 49.4056 27.56 50.0018C27.56 50.7321 27.595 51.4543 27.6637 52.167H25.2655C24.2171 52.167 23.3017 52.9581 23.234 54.0044C23.1597 55.1508 24.0675 56.1037 25.198 56.1037H28.403C31.0673 65.521 39.7402 72.4408 49.999 72.4408C54.792 72.4408 59.3604 70.9337 63.2328 68.1137C64.1152 67.471 64.4448 66.1695 63.6753 65.3865L58.9877 58.9873C58.3589 58.1287 57.1542 57.9391 56.2539 58.5863C54.4159 59.9075 52.2649 60.6308 49.999 60.6308C46.4067 60.6308 43.2251 58.8397 41.3003 56.1037H51.5063C52.5546 56.1037 53.4701 55.3126 53.5378 54.2662C53.612 53.1199 52.704 52.167 51.5738 52.167H39.5916C39.4463 51.4678 39.37 50.7435 39.37 50.0018C39.37 49.3983 39.4205 48.8067 39.5176 48.2303H51.5061C52.5544 48.2303 53.4699 47.4393 53.5376 46.3929C53.6118 45.2465 52.7038 44.2937 51.5736 44.2937H41.0362C42.9258 41.337 46.2373 39.3728 49.999 39.3728C52.4895 39.3728 54.8229 40.2125 56.7468 41.8008C57.5847 42.493 58.8259 42.3745 59.5176 41.536L64.5304 35.4647C65.2226 34.6264 65.1041 33.3858 64.2658 32.6937C60.2585 29.3849 55.1914 27.5628 49.999 27.5628C39.5979 27.5628 30.827 34.6762 28.2955 44.2937H25.198C24.0675 44.2937 23.1597 45.2465 23.234 46.3929C23.3017 47.4393 24.2169 48.2303 25.2653 48.2303ZM49.999 31.4995C53.6201 31.4995 57.1672 32.5746 60.1743 34.5577L57.6526 37.6118C55.3621 36.183 52.7509 35.4362 49.9988 35.4362C41.9672 35.4362 35.4331 41.9702 35.4331 50.0018C35.4331 58.0334 41.9672 64.5675 49.9988 64.5675C52.4432 64.5675 54.8005 63.9676 56.9143 62.8188L59.2574 66.0176C56.4519 67.6497 53.2873 68.5042 49.9988 68.5042C39.7965 68.5042 31.4964 60.2041 31.4964 50.0018C31.4964 39.7996 39.7969 31.4995 49.999 31.4995ZM16.1739 17.9792C16.1739 19.0663 15.2927 19.9475 14.2056 19.9475C13.1185 19.9475 12.2373 19.0663 12.2373 17.9792C12.2373 16.8921 13.1185 16.0109 14.2056 16.0109C15.2927 16.0107 16.1739 16.8921 16.1739 17.9792Z" fill="#034F9A"/>
<path fill-rule="evenodd" clip-rule="evenodd" d="M49.999 86.1208C69.9151 86.1208 86.1179 69.9178 86.1179 50.0018C86.1179 30.0858 69.9151 13.8829 49.999 13.8829C30.083 13.8829 13.88 30.0858 13.88 50.0018C13.88 69.9178 30.083 86.1208 49.999 86.1208ZM82.1812 50.0018C82.1812 32.2565 67.7443 17.8196 49.999 17.8196C32.2536 17.8196 17.8167 32.2565 17.8167 50.0018C17.8167 67.7471 32.2536 82.1841 49.999 82.1841C67.7443 82.1841 82.1812 67.7471 82.1812 50.0018Z" fill="#034F9A"/>
</g>
<defs>
<clipPath id="clip0_2_871">
<rect width="100" height="100" fill="white"/>
</clipPath>
</defs>
</svg>
