<svg width="100" height="100" viewBox="0 0 100 100" fill="none" xmlns="http://www.w3.org/2000/svg">
<g clip-path="url(#clip0_2_876)">
<path d="M22.7249 51.9516C23.7717 51.9165 24.6094 51.0551 24.6094 50C24.6094 48.9456 23.7732 48.0858 22.7264 48.0492C22.7028 48.0469 22.6799 48.0469 22.6562 48.0469C21.5782 48.0469 20.7031 48.922 20.7031 50C20.7031 51.078 21.5782 51.9531 22.6562 51.9531C22.6799 51.9531 22.7028 51.9531 22.7249 51.9516Z" fill="#034F9A"/>
<path d="M49.9999 20.7031C36.5669 20.7031 25.428 29.6913 21.8918 41.7144C21.5874 42.7497 22.1794 43.8354 23.2147 44.1398C24.2493 44.4434 25.3349 43.8521 25.6393 42.8168C28.7926 32.0968 38.8099 24.6094 49.9999 24.6094C64.0005 24.6094 75.3904 36 75.3904 49.9999C75.3904 60.5414 68.9322 69.602 59.7655 73.4365V58.6218L67.0057 51.3808C67.372 51.0146 67.5779 50.5179 67.5779 49.9999V46.0937C67.5779 45.0149 66.7036 44.1405 65.6248 44.1405C64.546 44.1405 63.6717 45.0149 63.6717 46.0937V49.1912L56.4314 56.4314C56.0652 56.7976 55.8592 57.2943 55.8592 57.8124V74.7068C54.5912 75.0074 53.2866 75.2142 51.953 75.3164V47.7996C55.3191 46.9298 57.8124 43.8682 57.8124 40.2343C57.8124 35.9268 54.3074 32.4218 49.9999 32.4218C45.6924 32.4218 42.1874 35.9268 42.1874 40.2343C42.1874 43.8682 44.6807 46.9298 48.0468 47.7996V75.3149C46.7155 75.2149 45.4108 75.012 44.1405 74.716V57.8124C44.1405 57.2943 43.9346 56.7976 43.5683 56.4314L36.3281 49.1912V46.0937C36.3281 45.0149 35.4538 44.1405 34.375 44.1405C33.2962 44.1405 32.4218 45.0149 32.4218 46.0937V49.9999C32.4218 50.5179 32.6278 51.0146 32.994 51.3808L40.2343 58.6218V73.4648C33.3183 70.6091 27.8877 64.7619 25.6378 57.1791C25.3311 56.1446 24.2439 55.5556 23.2101 55.8623C22.1756 56.169 21.5866 57.2562 21.8933 58.29C25.7423 71.2622 37.5083 79.2966 49.9999 79.2966C66.1207 79.2966 79.2967 66.1818 79.2967 49.9999C79.2967 33.8455 66.1543 20.7031 49.9999 20.7031ZM46.0937 40.2343C46.0937 38.0805 47.8461 36.3281 49.9999 36.3281C52.1537 36.3281 53.9061 38.0805 53.9061 40.2343C53.9061 42.3881 52.1537 44.1405 49.9999 44.1405C47.8461 44.1405 46.0937 42.3881 46.0937 40.2343Z" fill="#1D1D1D"/>
<path d="M98.4653 42.2341L90.0524 40.387C89.0591 36.1687 87.4112 32.171 85.1384 28.4715L90.0952 20.8963C90.6018 20.1227 90.4957 19.0996 89.8419 18.4457L81.5549 10.1587C80.901 9.50488 79.8779 9.39959 79.1043 9.90618L71.5291 14.8622C67.8296 12.5894 63.8318 10.9415 59.6143 9.9489L57.7673 1.53524C57.5704 0.639554 56.7762 0.000976562 55.8592 0.000976562H44.1404C43.2234 0.000976562 42.4292 0.639554 42.2323 1.53524L40.3853 9.9489C36.1678 10.9415 32.17 12.5894 28.4705 14.8622L20.8953 9.90618C20.1217 9.39959 19.0986 9.50564 18.4448 10.1587L10.1577 18.4457C9.5039 19.0996 9.39785 20.1227 9.90444 20.8963L14.8612 28.4715C12.5892 32.1702 10.9397 36.168 9.94564 40.387L1.53427 42.2341C0.638578 42.4309 0 43.2244 0 44.1414V55.8601C0 56.7772 0.637815 57.5706 1.5335 57.7682L10.0319 59.6367C11.0473 63.8214 12.6953 67.7658 14.9429 71.395L9.90444 79.106C9.39861 79.8797 9.50466 80.902 10.1577 81.5558L18.4448 89.8428C19.0986 90.4959 20.1202 90.6027 20.8938 90.0977L28.7093 84.9951C32.3302 87.1855 36.2219 88.7824 40.312 89.7536L42.2331 98.4678C42.4307 99.3635 43.2242 100.001 44.1404 100.001H55.8592C56.7762 100.001 57.5697 99.3635 57.7665 98.4678L59.6876 89.7536C63.7784 88.7824 67.6702 87.1855 71.2903 84.9951L79.1058 90.0977C79.8794 90.602 80.9018 90.4967 81.5549 89.8428L89.8419 81.5558C90.4957 80.9028 90.6018 79.8804 90.0959 79.106L85.0567 71.395C87.3051 67.7635 88.953 63.8176 89.9685 59.6367L98.4661 57.7682C99.3618 57.5714 100 56.7772 100 55.8601V44.1414C99.9996 43.2244 99.361 42.4309 98.4653 42.2341ZM96.0934 54.29L87.9185 56.0875C87.1685 56.2523 86.5849 56.8413 86.4262 57.592C85.4603 62.1757 83.6697 66.4596 81.1032 70.3246C80.6714 70.9754 80.6683 71.82 81.0956 72.4738L85.9578 79.9155L79.9138 85.9595L72.3798 81.0416C71.7328 80.6189 70.8982 80.6182 70.2504 81.0378C66.377 83.5479 62.1404 85.2851 57.6566 86.2029C56.9013 86.357 56.3078 86.9422 56.1414 87.6952L54.2898 96.0943H45.7098L43.8582 87.6952C43.6918 86.9422 43.0983 86.357 42.343 86.2029C37.86 85.2851 33.6226 83.5479 29.7499 81.0378C29.1014 80.6174 28.2668 80.6189 27.6198 81.0416L20.0866 85.9595L14.0418 79.9155L18.9048 72.4738C19.332 71.82 19.3282 70.9747 18.8964 70.3246C16.3314 66.4634 14.54 62.1803 13.5734 57.592C13.4147 56.8413 12.8311 56.2523 12.0819 56.0875L3.90623 54.29V45.7123L12.0048 43.9339C12.7601 43.7683 13.346 43.1725 13.5002 42.4149C14.4355 37.8037 16.2246 33.4679 18.8171 29.5304C19.2443 28.8796 19.2458 28.0381 18.8201 27.3866L14.0426 20.086L20.0851 14.0436L27.3856 18.8211C28.0372 19.2468 28.8787 19.246 29.5287 18.818C33.4685 16.2256 37.8035 14.4373 42.4132 13.5034C43.1708 13.3501 43.7674 12.7634 43.9329 12.0081L45.7113 3.90721H54.2883L56.0667 12.0081C56.2322 12.7634 56.8288 13.3501 57.5864 13.5034C62.1961 14.4373 66.5311 16.2256 70.4709 18.818C71.1209 19.246 71.9625 19.2468 72.614 18.8211L79.9145 14.0436L85.957 20.086L81.1795 27.3866C80.7538 28.0381 80.7545 28.8796 81.1825 29.5297C83.7758 33.4695 85.5641 37.8045 86.4979 42.4141C86.6513 43.1725 87.2372 43.7683 87.9933 43.9339L96.0934 45.7123V54.29Z" fill="#034F9A"/>
</g>
<defs>
<clipPath id="clip0_2_876">
<rect width="100" height="100" fill="white"/>
</clipPath>
</defs>
</svg>
