<svg width="100" height="100" viewBox="0 0 100 100" fill="none" xmlns="http://www.w3.org/2000/svg">
<path d="M50 65.625C48.922 65.625 48.0469 66.5001 48.0469 67.5781C48.0469 68.6562 48.922 69.5312 50 69.5312C51.078 69.5312 51.9531 68.6562 51.9531 67.5781C51.9531 66.5001 51.078 65.625 50 65.625Z" fill="#034F9A"/>
<path d="M94.1406 26.5625H63.6719V12.8906C63.6719 9.65958 61.0435 7.03125 57.8125 7.03125H5.85938C2.62833 7.03125 0 9.65958 0 12.8906V55.8594C0 59.0904 2.62833 61.7188 5.85938 61.7188H12.3047V71.4844C12.3047 72.2046 12.7014 72.8661 13.3362 73.2063C13.9694 73.5458 14.74 73.51 15.3412 73.1094L32.4272 61.7188H36.3281V75.3906C36.3281 78.6217 38.9565 81.25 42.1875 81.25H68.1587L85.2448 92.6407C85.8345 93.0344 86.6058 93.0824 87.2498 92.7376C87.8845 92.3973 88.2812 91.7358 88.2812 91.0156V81.25H94.1406C97.3717 81.25 100 78.6217 100 75.3906V32.4219C100 29.1908 97.3717 26.5625 94.1406 26.5625ZM31.8359 57.8125C31.4507 57.8125 31.0738 57.9269 30.7526 58.1406L16.2109 67.8345V59.7656C16.2109 58.6868 15.3366 57.8125 14.2578 57.8125H5.85938C4.7821 57.8125 3.90625 56.9366 3.90625 55.8594V12.8906C3.90625 11.8134 4.7821 10.9375 5.85938 10.9375H57.8125C58.8898 10.9375 59.7656 11.8134 59.7656 12.8906V55.8594C59.7656 56.9366 58.8898 57.8125 57.8125 57.8125H31.8359ZM96.0938 75.3906C96.0938 76.4679 95.2179 77.3438 94.1406 77.3438H86.3281C85.2493 77.3438 84.375 78.2181 84.375 79.2969V87.3657L69.8334 77.6718C69.5122 77.4574 69.1353 77.3438 68.75 77.3438H42.1875C41.1102 77.3438 40.2344 76.4671 40.2344 75.3906V61.7188H57.8125C60.3584 61.7188 62.5298 60.0853 63.3362 57.8125H86.3281C87.4069 57.8125 88.2812 56.9374 88.2812 55.8594C88.2812 54.7806 87.4069 53.9062 86.3281 53.9062H63.6719V46.0938H86.3281C87.4069 46.0938 88.2812 45.2187 88.2812 44.1406C88.2812 43.0618 87.4069 42.1875 86.3281 42.1875H63.6719V30.4688H94.1406C95.2179 30.4688 96.0938 31.3446 96.0938 32.4219V75.3906Z" fill="#1D1D1D"/>
<path fill-rule="evenodd" clip-rule="evenodd" d="M63.6719 26.5625H94.1406C97.3717 26.5625 100 29.1908 100 32.4219V75.3906C100 78.6217 97.3717 81.25 94.1406 81.25H88.2812V91.0156C88.2812 91.7358 87.8845 92.3973 87.2498 92.7376C86.6058 93.0824 85.8345 93.0344 85.2448 92.6407L68.1587 81.25H42.1875C38.9565 81.25 36.3281 78.6217 36.3281 75.3906V61.7188H40.2344V75.3906C40.2344 76.4671 41.1102 77.3438 42.1875 77.3438H68.75C69.1353 77.3438 69.5122 77.4574 69.8334 77.6718L84.375 87.3657V79.2969C84.375 78.2181 85.2493 77.3438 86.3281 77.3438H94.1406C95.2179 77.3438 96.0938 76.4679 96.0938 75.3906V32.4219C96.0938 31.3446 95.2179 30.4688 94.1406 30.4688H63.6719V26.5625ZM63.6719 42.1875V46.0938H86.3281C87.4069 46.0938 88.2812 45.2187 88.2812 44.1406C88.2812 43.0618 87.4069 42.1875 86.3281 42.1875H63.6719ZM63.6719 53.9062L63.3362 57.8125H86.3281C87.4069 57.8125 88.2812 56.9374 88.2812 55.8594C88.2812 54.7806 87.4069 53.9062 86.3281 53.9062H63.6719Z" fill="#034F9A"/>
<path d="M86.3281 65.625H57.8125C56.7337 65.625 55.8594 66.4993 55.8594 67.5781C55.8594 68.6569 56.7337 69.5312 57.8125 69.5312H86.3281C87.4069 69.5312 88.2812 68.6569 88.2812 67.5781C88.2812 66.4993 87.4069 65.625 86.3281 65.625Z" fill="#1D1D1D"/>
<path d="M41.3629 48.3635C41.9649 47.9264 42.2655 47.1855 42.1403 46.4531L40.6984 38.057L46.7989 32.1114C47.3314 31.5934 47.5229 30.8167 47.2932 30.1094C47.0636 29.4022 46.4525 28.8872 45.7162 28.7804L37.2873 27.5566L33.5176 19.9173C33.1888 19.2505 32.509 18.8286 31.7659 18.8286C31.0228 18.8286 30.3438 19.2505 30.0149 19.9173L26.2445 27.5566L17.8155 28.7804C17.0793 28.8872 16.4682 29.4022 16.2386 30.1094C16.0089 30.8167 16.2004 31.5934 16.7329 32.1114L22.8334 38.057L21.3937 46.4531C21.2678 47.1863 21.5692 47.9264 22.1712 48.3635C22.7724 48.8007 23.5696 48.8579 24.2281 48.5123L31.7659 44.5488L39.306 48.5123C39.9652 48.8587 40.7632 48.7992 41.3629 48.3635ZM32.6746 40.6128C32.1054 40.3137 31.4256 40.3137 30.8565 40.6128L25.9126 43.2129L26.8571 37.7053C26.9655 37.072 26.7549 36.425 26.2949 35.9764L22.294 32.0771L27.8215 31.2752C28.4578 31.1821 29.0079 30.7831 29.2924 30.2063L31.7659 25.1946L34.2393 30.2063C34.5239 30.7831 35.074 31.1821 35.7103 31.2752L41.2378 32.0771L37.2369 35.9764C36.7761 36.425 36.5663 37.072 36.6754 37.706L37.6207 43.2129L32.6746 40.6128Z" fill="#034F9A"/>
</svg>
